<svg width="50" height="26" viewBox="0 0 50 26" fill="none" xmlns="http://www.w3.org/2000/svg">
<path d="M49.1272 25.6527C49.146 25.649 49.1644 25.6439 49.1829 25.6391C49.1987 25.6351 49.2146 25.6318 49.23 25.627C49.2481 25.6215 49.2657 25.6147 49.2834 25.6084C49.299 25.6027 49.3147 25.5976 49.3302 25.5911C49.3468 25.5842 49.3629 25.5761 49.3791 25.5684C49.3948 25.5609 49.4109 25.554 49.4264 25.5456C49.4418 25.5374 49.4564 25.528 49.4715 25.519C49.4869 25.5097 49.5025 25.5011 49.5176 25.491C49.5336 25.4803 49.5485 25.4684 49.564 25.4568C49.577 25.4471 49.5903 25.438 49.603 25.4276C49.6265 25.4084 49.6487 25.3879 49.6704 25.3668C49.6743 25.363 49.6785 25.3598 49.6824 25.3559C49.6865 25.3519 49.6899 25.3474 49.6938 25.3432C49.7146 25.3218 49.7349 25.2998 49.754 25.2767C49.7651 25.2631 49.7748 25.2489 49.7852 25.2349C49.7959 25.2204 49.8072 25.2064 49.8172 25.1914C49.8279 25.1753 49.8372 25.1587 49.8471 25.1422C49.8553 25.1284 49.8641 25.1148 49.8718 25.1004C49.8808 25.0838 49.8883 25.0666 49.8962 25.0497C49.9033 25.0347 49.9108 25.0198 49.9173 25.0043C49.9243 24.9877 49.9298 24.9708 49.9358 24.9538C49.9418 24.9374 49.9481 24.921 49.9532 24.9043C49.9584 24.8872 49.9622 24.8698 49.9665 24.8525C49.9707 24.8354 49.9756 24.8187 49.9789 24.8015C49.983 24.7811 49.9854 24.7605 49.9883 24.74C49.9904 24.7256 49.9931 24.7112 49.9945 24.6966C49.9982 24.6606 50 24.6246 50 24.5885V1.41148C50 0.812497 49.5147 0.327148 48.9157 0.327148H14.7592C14.7496 0.327148 14.7404 0.328304 14.7308 0.328593C14.7101 0.329172 14.6896 0.33004 14.6691 0.331775C14.6527 0.333076 14.6365 0.334956 14.6204 0.337124C14.6019 0.339438 14.5835 0.342184 14.5651 0.34551C14.5479 0.348546 14.5309 0.35216 14.5139 0.356064C14.4967 0.360112 14.4795 0.36445 14.4625 0.369365C14.4456 0.374136 14.4289 0.37934 14.4125 0.384834C14.3955 0.390617 14.3786 0.396691 14.362 0.403341C14.3462 0.409558 14.3308 0.415919 14.3154 0.422858C14.2984 0.430521 14.2815 0.438763 14.2647 0.447293C14.2504 0.454666 14.2364 0.462184 14.2225 0.470136C14.2057 0.479678 14.1892 0.489799 14.1729 0.500208C14.1594 0.508883 14.1463 0.517846 14.1333 0.526955C14.1179 0.537798 14.1028 0.549075 14.0879 0.560931C14.0743 0.571774 14.061 0.582907 14.0478 0.594329C14.0348 0.60575 14.0219 0.617171 14.0094 0.629316C13.9951 0.643051 13.9813 0.657364 13.9677 0.671822C13.9609 0.679051 13.9537 0.685413 13.9472 0.692786C13.9433 0.697123 13.9403 0.701895 13.9365 0.706232C13.9229 0.721991 13.9102 0.738473 13.8975 0.755099C13.8882 0.767244 13.8787 0.779388 13.87 0.791822C13.8587 0.808015 13.8483 0.824641 13.8379 0.841412C13.8294 0.855147 13.8206 0.868737 13.8127 0.882761C13.8036 0.898954 13.7957 0.915581 13.7874 0.932207C13.7799 0.947388 13.7721 0.962569 13.7653 0.978039C13.7582 0.994376 13.752 1.01129 13.7458 1.02792C13.7396 1.04426 13.7332 1.06045 13.7279 1.07693C13.7225 1.09356 13.7182 1.11047 13.7136 1.12739C13.7089 1.14474 13.704 1.16194 13.7001 1.17944C13.6965 1.19577 13.694 1.2124 13.6912 1.22888C13.688 1.24768 13.6848 1.26647 13.6825 1.28527C13.6806 1.30088 13.6797 1.31678 13.6786 1.33269C13.6771 1.35293 13.6758 1.37317 13.6755 1.39356C13.6754 1.39948 13.6747 1.40527 13.6747 1.41119V8.09822C13.6747 8.6972 14.16 9.18255 14.759 9.18255C15.358 9.18255 15.8433 8.6972 15.8433 8.09822V3.81943L25.4839 12.3549C25.4336 12.3903 25.3852 12.4295 25.3401 12.4745L15.8432 21.9713V14.8454C15.8432 14.2464 15.3578 13.761 14.7589 13.761C14.1599 13.761 13.6745 14.2464 13.6745 14.8454V16.1703H8.07213C7.47314 16.1703 6.98779 16.6556 6.98779 17.2546C6.98779 17.8536 7.47314 18.339 8.07213 18.339H13.6745V24.5892C13.6745 25.1882 14.1599 25.6736 14.7589 25.6736H48.9154C48.9511 25.6736 48.9868 25.6717 49.0224 25.6682C49.039 25.6666 49.0551 25.6634 49.0714 25.6611C49.0902 25.6585 49.1087 25.6563 49.1272 25.6527ZM47.8312 21.9715L38.3342 12.4746C38.3281 12.4685 38.3216 12.4635 38.3154 12.4577L45.4551 6.40029C45.9117 6.01282 45.9678 5.32868 45.5803 4.87196C45.1931 4.41553 44.509 4.35914 44.052 4.74675L31.8523 15.0971L17.6195 2.49596H47.8312V21.9715ZM26.8738 14.0083C26.9511 13.9309 27.0139 13.8448 27.0629 13.7531L31.1184 17.3437C31.3235 17.5251 31.5802 17.6162 31.8373 17.6162C32.0868 17.6162 32.3362 17.5305 32.5389 17.3587L36.672 13.8521C36.7096 13.9071 36.7519 13.9596 36.8006 14.0083L46.2975 23.5052H17.3769L26.8738 14.0083Z" fill="currentColor"/>
<path d="M1.08434 12.6765H19.3976C19.9966 12.6765 20.4819 12.1911 20.4819 11.5921C20.4819 10.9932 19.9966 10.5078 19.3976 10.5078H1.08434C0.485348 10.5078 0 10.9932 0 11.5921C0 12.1911 0.485348 12.6765 1.08434 12.6765Z" fill="currentColor"/>
<path d="M2.98204 6.7009H11.2049C11.8039 6.7009 12.2893 6.21555 12.2893 5.61656C12.2893 5.01757 11.8039 4.53223 11.2049 4.53223H2.98204C2.38305 4.53223 1.89771 5.01757 1.89771 5.61656C1.89771 6.21555 2.38305 6.7009 2.98204 6.7009Z" fill="currentColor"/>
<path d="M9.03613 20.749H1.08434C0.485348 20.749 0 21.2344 0 21.8334C0 22.4323 0.485348 22.9177 1.08434 22.9177H9.03613C9.63511 22.9177 10.1205 22.4323 10.1205 21.8334C10.1205 21.2344 9.63511 20.749 9.03613 20.749Z" fill="currentColor"/>
</svg>
