<svg width="20" height="20" viewBox="0 0 20 20" fill="none" xmlns="http://www.w3.org/2000/svg">
<path fill-rule="evenodd" clip-rule="evenodd" d="M12.377 10L19.5077 2.8693C20.1641 2.21291 20.1641 1.14869 19.5077 0.492388C18.8513 -0.164004 17.7872 -0.164004 17.1308 0.492388L9.99996 7.62322L2.86914 0.492294C2.21274 -0.164098 1.14862 -0.164098 0.492224 0.492294C-0.164075 1.14869 -0.164075 2.21291 0.492224 2.86921L7.62305 9.99994L0.492224 17.1308C-0.164075 17.7872 -0.164075 18.8514 0.492224 19.5077C1.14862 20.1641 2.21274 20.1641 2.86914 19.5077L9.99996 12.3769L17.1308 19.5077C17.7871 20.1641 18.8513 20.1641 19.5077 19.5077C20.1641 18.8513 20.1641 17.7872 19.5077 17.1308L12.377 10Z" fill="#00B76C"/>
</svg>
