<svg width="22" height="22" viewBox="0 0 22 22" fill="none" xmlns="http://www.w3.org/2000/svg">
<path d="M18.2125 13.7875C17.1932 12.7682 15.9953 11.9914 14.6894 11.4856C16.0834 10.3901 16.9812 8.68886 16.9812 6.78125C16.9812 3.48302 14.2982 0.8 11 0.8C7.70177 0.8 5.01875 3.48302 5.01875 6.78125C5.01875 8.68886 5.9166 10.3901 7.3106 11.4856C6.00469 11.9914 4.80686 12.7682 3.78753 13.7875L3.92895 13.9289L3.78752 13.7875C1.86127 15.7138 0.8 18.2759 0.8 21V21.2H1H2.5625H2.7625V21C2.7625 16.458 6.458 12.7625 11 12.7625C15.542 12.7625 19.2375 16.458 19.2375 21V21.2H19.4375H21H21.2V21C21.2 18.2759 20.1387 15.7138 18.2125 13.7875L18.0913 13.9087L18.2125 13.7875ZM11 10.8C8.78425 10.8 6.98125 8.99704 6.98125 6.78125C6.98125 4.56546 8.78425 2.7625 11 2.7625C13.2158 2.7625 15.0188 4.56546 15.0188 6.78125C15.0188 8.99704 13.2158 10.8 11 10.8Z" fill="currentColor" stroke="currentColor" stroke-width="0.4"/>
</svg>
