<svg width="30" height="30" viewBox="0 0 30 30" fill="none" xmlns="http://www.w3.org/2000/svg">
<g clip-path="url(#clip0_601_1376)">
<path d="M1.87537 2.04137C-0.482129 4.49012 0.000371143 7.09137 0.000371143 14.9939C0.000371143 21.5564 -1.14463 28.1351 4.84787 29.6839C6.71912 30.1651 23.2991 30.1651 25.1679 29.6814C27.6629 29.0376 29.6929 27.0139 29.9704 23.4851C30.0091 22.9926 30.0091 7.00387 29.9691 6.50137C29.6741 2.74262 27.3604 0.576369 24.3116 0.137619C23.6129 0.036369 23.4729 0.00636903 19.8879 0.00011903C7.17162 0.00636903 4.38412 -0.559881 1.87537 2.04137Z" fill="white"/>
<path d="M14.9978 3.92378C10.459 3.92378 6.14901 3.52003 4.50276 7.74503C3.82276 9.49003 3.92151 11.7563 3.92151 15.0013C3.92151 17.8488 3.83026 20.525 4.50276 22.2563C6.14526 26.4838 10.4903 26.0788 14.9953 26.0788C19.3415 26.0788 23.8228 26.5313 25.489 22.2563C26.1703 20.4938 26.0703 18.2613 26.0703 15.0013C26.0703 10.6738 26.309 7.88003 24.2103 5.78253C22.0853 3.65753 19.2115 3.92378 14.9928 3.92378H14.9978ZM14.0053 5.92003C23.4728 5.90503 24.6778 4.85253 24.0128 19.4738C23.7765 24.645 19.839 24.0775 14.999 24.0775C6.17401 24.0775 5.92026 23.825 5.92026 14.9963C5.92026 6.06503 6.62026 5.92503 14.0053 5.91753V5.92003ZM20.9103 7.75878C20.1765 7.75878 19.5815 8.35378 19.5815 9.08753C19.5815 9.82128 20.1765 10.4163 20.9103 10.4163C21.644 10.4163 22.239 9.82128 22.239 9.08753C22.239 8.35378 21.644 7.75878 20.9103 7.75878ZM14.9978 9.31253C11.8565 9.31253 9.31026 11.86 9.31026 15.0013C9.31026 18.1425 11.8565 20.6888 14.9978 20.6888C18.139 20.6888 20.684 18.1425 20.684 15.0013C20.684 11.86 18.139 9.31253 14.9978 9.31253ZM14.9978 11.3088C19.879 11.3088 19.8853 18.6938 14.9978 18.6938C10.1178 18.6938 10.1103 11.3088 14.9978 11.3088Z" fill="#333333"/>
</g>
<defs>
<clipPath id="clip0_601_1376">
<rect width="30" height="30" fill="white"/>
</clipPath>
</defs>
</svg>
