<svg width="200" height="40" viewBox="0 0 200 40" fill="none" xmlns="http://www.w3.org/2000/svg">
<path d="M72.0978 10.5093C71.602 10.3421 71.0629 10.3557 70.5762 10.5477C70.084 10.7383 69.6579 11.0675 69.3495 11.4953L61.019 23.8269L52.6757 11.4825C52.3706 11.0597 51.9488 10.7348 51.4618 10.5477C50.977 10.3616 50.4432 10.3466 49.9487 10.505C49.5063 10.6326 49.1215 10.9085 48.8588 11.2861C48.5685 11.6976 48.4186 12.1915 48.4313 12.6947V29.6406H50.4445V12.699C50.4445 12.6222 50.4445 12.4471 50.5556 12.413H50.6112C50.6911 12.4166 50.7688 12.4399 50.8375 12.4809C50.9061 12.5218 50.9635 12.5792 51.0044 12.6478L61.0104 27.4125L71.0164 12.6435C71.0559 12.5758 71.1119 12.5193 71.1791 12.479C71.2464 12.4387 71.3227 12.416 71.4011 12.413H71.478C71.5678 12.4429 71.5763 12.6179 71.5763 12.6947V29.6406H73.5895V12.699C73.6059 12.1927 73.4558 11.6949 73.1621 11.2818C72.9003 10.9162 72.5269 10.6451 72.0978 10.5093Z" fill="#4A9B7A"/>
<path d="M77.7142 13.9877V26.0377C77.7119 26.9905 78.0882 27.9054 78.7605 28.5816C79.4327 29.2577 80.3461 29.64 81.3003 29.6445H95.3155V27.6341H81.3174C80.8941 27.6329 80.4886 27.4643 80.1898 27.165C79.8909 26.8657 79.7231 26.4603 79.7231 26.0377V21.0307H94.3837V19.0203H79.7231V13.9877C79.7214 13.777 79.7613 13.5679 79.8405 13.3726C79.9197 13.1772 80.0367 12.9993 80.1847 12.8491C80.3327 12.6989 80.509 12.5792 80.7033 12.497C80.8977 12.4148 81.1063 12.3716 81.3174 12.37H95.3326V10.3809H81.3174C80.8435 10.3809 80.3742 10.4742 79.9365 10.6556C79.4988 10.8369 79.1012 11.1028 78.7665 11.4378C78.4318 11.7728 78.1666 12.1705 77.986 12.6081C77.8054 13.0456 77.7131 13.5145 77.7142 13.9877Z" fill="#4A9B7A"/>
<path d="M113.759 10.3809H98.504V29.6403H113.759C115.156 29.6391 116.496 29.0843 117.484 28.0975C118.472 27.1107 119.028 25.7727 119.029 24.3772V15.6695C119.031 14.2706 118.477 12.928 117.489 11.9364C116.501 10.9448 115.16 10.3854 113.759 10.3809ZM113.759 27.6341H100.509V12.3913H113.759C114.628 12.3936 115.461 12.7398 116.076 13.3542C116.69 13.9686 117.036 14.8012 117.037 15.6695V24.3815C117.034 25.2468 116.687 26.0754 116.072 26.6852C115.457 27.2951 114.625 27.6363 113.759 27.6341Z" fill="#4A9B7A"/>
<path d="M122.739 13.9877V26.0377C122.737 26.9905 123.113 27.9054 123.785 28.5816C124.457 29.2577 125.371 29.64 126.325 29.6445H140.34V27.6341H126.325C125.902 27.6329 125.496 27.4643 125.197 27.165C124.899 26.8657 124.731 26.4603 124.731 26.0377V21.0307H139.4V19.0203H124.731V13.9877C124.729 13.777 124.769 13.5679 124.848 13.3726C124.927 13.1772 125.044 12.9993 125.192 12.8491C125.34 12.6989 125.517 12.5792 125.711 12.497C125.905 12.4148 126.114 12.3716 126.325 12.37H140.34V10.3809H126.325C125.371 10.3854 124.457 10.7677 123.785 11.4438C123.113 12.12 122.737 13.0349 122.739 13.9877Z" fill="#4A9B7A"/>
<path d="M156.736 20.0958L147.333 17.9615C146.585 17.7951 144.307 17.2999 144.307 16.2029V14.4102C144.286 14.135 144.323 13.8585 144.417 13.5989C144.51 13.3392 144.658 13.1022 144.85 12.9034C145.004 12.7377 145.191 12.6044 145.398 12.5113C145.605 12.4182 145.828 12.3672 146.055 12.3613H159.651V10.3594H146.055C145.556 10.3693 145.064 10.4786 144.609 10.6809C144.153 10.8832 143.742 11.1744 143.401 11.5375C143.028 11.9187 142.737 12.3721 142.547 12.8699C142.356 13.3677 142.27 13.8992 142.294 14.4315V16.2115C142.29 16.8709 142.516 17.5111 142.935 18.0213C143.303 18.4636 143.764 18.8193 144.285 19.0628C145.115 19.4605 145.993 19.7475 146.897 19.9165L155.873 21.944V21.991L156.33 22.0721C158.33 22.4349 158.399 23.5618 158.399 23.6002V25.7558C158.399 26.8699 157.57 27.6211 156.334 27.6211H142.443V29.6401H156.36C157.427 29.672 158.463 29.2806 159.241 28.5517C159.624 28.1963 159.929 27.7647 160.135 27.2846C160.341 26.8045 160.444 26.2866 160.438 25.7643V23.6301C160.416 23.0584 160.242 22.5028 159.933 22.0209C159.485 21.3465 158.583 20.4543 156.736 20.0958Z" fill="#4A9B7A"/>
<path d="M162.22 12.3913H170.401V29.6445H172.414V12.3913H180.616V10.3809H162.22V12.3913Z" fill="#4A9B7A"/>
<path d="M185.98 12.37H200V10.3809H185.98C185.026 10.3854 184.113 10.7677 183.441 11.4438C182.768 12.12 182.392 13.0349 182.394 13.9877V26.0377C182.393 26.9898 182.77 27.9036 183.442 28.5788C184.114 29.2541 185.027 29.6357 185.98 29.6403H200V27.6341H185.98C185.557 27.6329 185.152 27.4643 184.853 27.165C184.554 26.8657 184.386 26.4603 184.386 26.0377V21.0307H199.055V19.0203H184.386V13.9877C184.385 13.777 184.424 13.5679 184.504 13.3726C184.583 13.1772 184.7 12.9993 184.848 12.8491C184.996 12.6989 185.172 12.5792 185.366 12.497C185.561 12.4148 185.769 12.3716 185.98 12.37Z" fill="#4A9B7A"/>
<path d="M15.0325 1.91208e-05C13.901 0.00673882 12.8177 0.45861 12.0176 1.25765C11.2174 2.0567 10.765 3.1385 10.7582 4.2685V9.9029L19.3409 18.474V4.28558C19.3403 3.72151 19.2284 3.16309 19.0115 2.64228C18.7945 2.12147 18.4769 1.6485 18.0767 1.25044C17.6765 0.852373 17.2017 0.537036 16.6793 0.322473C16.1569 0.10791 15.5973 -0.00166494 15.0325 1.91208e-05Z" fill="#4A9B7A"/>
<path d="M8.51509e-06 24.9877C0.00562582 26.118 0.457749 27.2005 1.25811 27.9998C2.05847 28.7991 3.14238 29.2506 4.27424 29.2562H9.91623L18.4989 20.6851H4.29134C3.72667 20.6862 3.16775 20.7984 2.6465 21.0152C2.12524 21.232 1.65185 21.5493 1.25337 21.9488C0.85488 22.3483 0.539096 22.8223 0.324044 23.3438C0.108993 23.8652 -0.0011152 24.4238 8.51509e-06 24.9877Z" fill="#4A9B7A"/>
<path d="M25.0214 40C26.1532 39.9944 27.2371 39.5429 28.0375 38.7436C28.8379 37.9443 29.29 36.8619 29.2956 35.7315V30.0971L20.73 21.5303V35.7187C20.7334 36.8539 21.1868 37.9415 21.9909 38.7438C22.7951 39.5461 23.8847 39.9978 25.0214 40Z" fill="#4A9B7A"/>
<path d="M35.7625 10.7266H30.1376L21.5549 19.2977H35.7625C36.9006 19.2977 37.9921 18.8462 38.7969 18.0425C39.6017 17.2388 40.0538 16.1487 40.0538 15.0121C40.0538 13.8755 39.6017 12.7855 38.7969 11.9818C37.9921 11.1781 36.9006 10.7266 35.7625 10.7266Z" fill="#4A9B7A"/>
<path d="M25.0214 1.91208e-05C23.8898 0.00673882 22.8066 0.45861 22.0065 1.25765C21.2063 2.0567 20.7539 3.1385 20.7471 4.2685V18.4569L29.3298 9.88583V4.28558C29.3292 3.72151 29.2173 3.16309 29.0004 2.64228C28.7834 2.12147 28.4658 1.6485 28.0656 1.25044C27.6654 0.852373 27.1905 0.537036 26.6682 0.322473C26.1458 0.10791 25.5862 -0.00166494 25.0214 1.91208e-05Z" fill="#4A9B7A"/>
<path d="M4.29133 10.7266C3.1532 10.7266 2.06168 11.1781 1.2569 11.9818C0.452123 12.7855 0 13.8755 0 15.0121C0 16.1487 0.452123 17.2388 1.2569 18.0425C2.06168 18.8462 3.1532 19.2977 4.29133 19.2977H18.4989L9.91622 10.7266H4.29133Z" fill="#4A9B7A"/>
<path d="M15.0325 40C16.1643 39.9944 17.2483 39.5429 18.0486 38.7436C18.849 37.9443 19.3011 36.8619 19.3067 35.7315V21.5303L10.7411 30.0971V35.7144C10.7434 36.8504 11.1963 37.9391 12.0005 38.7423C12.8048 39.5455 13.895 39.9978 15.0325 40Z" fill="#4A9B7A"/>
<path d="M35.7625 20.7021H21.5549L30.1376 29.2733H35.7625C36.9006 29.2733 37.9921 28.8218 38.7969 28.0181C39.6017 27.2144 40.0538 26.1243 40.0538 24.9877C40.0538 23.8511 39.6017 22.7611 38.7969 21.9574C37.9921 21.1537 36.9006 20.7021 35.7625 20.7021Z" fill="#4A9B7A"/>
</svg>
