<svg width="30" height="30" viewBox="0 0 30 30" fill="none" xmlns="http://www.w3.org/2000/svg">
<g clip-path="url(#clip0_91_57)">
<path d="M28.9436 17.3652C29.8386 9.83143 28.5136 5.07518 26.1236 2.92393L26.1249 2.92268C22.2674 -0.751068 9.23986 -1.29482 4.62486 3.08768C2.55236 5.23143 1.82236 8.37768 1.74236 12.2727C1.66236 16.1689 1.56736 23.4677 8.36861 25.4477H8.37486L8.36861 28.4714C8.36861 28.4714 8.32236 29.6964 9.10486 29.9427C9.99986 30.2327 10.4049 29.6639 13.1886 26.3389C17.8436 26.7427 21.4186 25.8177 21.8249 25.6827C22.7649 25.3677 28.0836 24.6639 28.9436 17.3652ZM13.6474 24.2114C13.6474 24.2114 10.7011 27.8852 9.78486 28.8389C9.48486 29.1489 9.15611 29.1202 9.16111 28.5052C9.16111 28.1014 9.18361 23.4852 9.18361 23.4852C3.41736 21.8327 3.75736 15.6177 3.81986 12.3664C3.88236 9.11393 4.47736 6.45018 6.23236 4.65643C10.2811 0.860182 21.7024 1.70893 24.6124 4.44393C28.1699 7.59768 26.9036 16.5077 26.9111 16.8114C26.1799 22.9039 21.8699 23.2902 21.0774 23.5539C20.7386 23.6664 17.5949 24.4752 13.6474 24.2114Z" fill="#8E24AA"/>
<path d="M15.277 5.37109C14.7957 5.37109 14.7957 6.12109 15.277 6.12734C19.0107 6.15609 22.0857 8.75859 22.1195 13.5323C22.1195 14.0361 22.857 14.0298 22.8507 13.5261H22.8495C22.8095 8.38234 19.452 5.39984 15.277 5.37109Z" fill="#8E24AA"/>
<path d="M20.1892 12.7403C20.1779 13.2378 20.9142 13.2616 20.9204 12.7578C20.9817 9.92157 19.2329 7.58532 15.9467 7.33907C15.4654 7.30407 15.4154 8.06032 15.8954 8.09532C18.7454 8.31157 20.2467 10.2566 20.1892 12.7403Z" fill="#8E24AA"/>
<path d="M19.4008 15.9662C18.7833 15.6087 18.1545 15.8312 17.8945 16.1824L17.3508 16.8862C17.0745 17.2437 16.5583 17.1962 16.5583 17.1962C12.7908 16.1999 11.7833 12.2574 11.7833 12.2574C11.7833 12.2574 11.737 11.7237 12.082 11.4374L12.762 10.8749C13.102 10.6049 13.317 9.95492 12.9708 9.31616C12.0458 7.64491 11.4245 7.06867 11.1083 6.62617C10.7758 6.20991 10.2758 6.11616 9.75578 6.39741H9.74453C8.66328 7.02991 7.47954 8.21366 7.85828 9.43242C8.50453 10.7174 9.69203 14.8137 13.477 17.9087C15.2558 19.3724 18.0708 20.8724 19.2658 21.2187L19.277 21.2362C20.4545 21.6287 21.5995 20.3987 22.2108 19.2849V19.2762C22.482 18.7374 22.392 18.2274 21.9958 17.8937C21.2933 17.2087 20.2333 16.4524 19.4008 15.9662Z" fill="#8E24AA"/>
<path d="M16.4617 10.1301C17.6629 10.2001 18.2454 10.8276 18.3079 12.1164C18.3304 12.6201 19.0617 12.5851 19.0392 12.0814C18.9592 10.3988 18.0817 9.46135 16.5017 9.37385C16.0204 9.3451 15.9754 10.1013 16.4617 10.1301Z" fill="#8E24AA"/>
</g>
<defs>
<clipPath id="clip0_91_57">
<rect width="30" height="30" fill="white"/>
</clipPath>
</defs>
</svg>
