<svg width="30" height="30" viewBox="0 0 30 30" fill="none" xmlns="http://www.w3.org/2000/svg">
<g clip-path="url(#clip0_91_66)">
<path d="M25.65 4.31125C22.8 1.55625 19.05 0 15.0562 0C3.59375 0 -3.60375 12.4187 2.12 22.2975L0 30L7.91875 27.935C11.3687 29.7987 14.195 29.6338 15.0637 29.7437C28.355 29.7437 34.9712 13.6637 25.6312 4.36L25.65 4.31125Z" fill="#ECEFF1"/>
<path d="M15.0834 27.1888L15.0759 27.1875H15.0559C11.0784 27.1875 8.53711 25.3038 8.28711 25.195L3.59961 26.4138L4.85586 21.8575L4.55711 21.3888C3.31961 19.4188 2.66211 17.15 2.66211 14.8138C2.66211 3.82252 16.0934 -1.67373 23.8659 6.09502C31.6196 13.7825 26.1759 27.1888 15.0834 27.1888Z" fill="#4CAF50"/>
<path d="M21.8839 17.8827L21.8727 17.9765C21.4964 17.789 19.6639 16.8927 19.3227 16.769C18.5564 16.4852 18.7727 16.724 17.3014 18.409C17.0827 18.6527 16.8652 18.6715 16.4939 18.5027C16.1189 18.3152 14.9152 17.9215 13.4902 16.6465C12.3802 15.6527 11.6352 14.434 11.4152 14.059C11.0489 13.4265 11.8152 13.3365 12.5127 12.0165C12.6377 11.754 12.5739 11.5477 12.4814 11.3615C12.3877 11.174 11.6414 9.33649 11.3289 8.60399C11.0289 7.87399 10.7202 7.96649 10.4889 7.96649C9.76892 7.90399 9.24267 7.91399 8.77892 8.39649C6.76142 10.614 7.27017 12.9015 8.99642 15.334C12.3889 19.774 14.1964 20.5915 17.5014 21.7265C18.3939 22.0102 19.2077 21.9702 19.8514 21.8777C20.5689 21.764 22.0602 20.9765 22.3714 20.0952C22.6902 19.214 22.6902 18.4827 22.5964 18.314C22.5039 18.1452 22.2589 18.0515 21.8839 17.8827Z" fill="#FAFAFA"/>
</g>
<defs>
<clipPath id="clip0_91_66">
<rect width="30" height="30" fill="white"/>
</clipPath>
</defs>
</svg>
