<svg width="30" height="30" viewBox="0 0 30 30" fill="none" xmlns="http://www.w3.org/2000/svg">
<g clip-path="url(#clip0_601_1392)">
<path d="M25.65 4.31125C22.8 1.55625 19.05 0 15.0562 0C3.59375 0 -3.60375 12.4187 2.12 22.2975L0 30L7.91875 27.935C11.3687 29.7987 14.195 29.6338 15.0637 29.7437C28.355 29.7437 34.9712 13.6637 25.6312 4.36L25.65 4.31125Z" fill="white"/>
<path d="M15.0834 27.1888L15.0759 27.1875H15.0559C11.0784 27.1875 8.53711 25.3038 8.28711 25.195L3.59961 26.4138L4.85586 21.8575L4.55711 21.3888C3.31961 19.4188 2.66211 17.15 2.66211 14.8138C2.66211 3.82252 16.0934 -1.67373 23.8659 6.09502C31.6196 13.7825 26.1759 27.1888 15.0834 27.1888Z" fill="white"/>
<path d="M21.8837 17.8837L21.8724 17.9775C21.4962 17.79 19.6637 16.8937 19.3224 16.77C18.5562 16.4862 18.7724 16.725 17.3012 18.41C17.0824 18.6537 16.8649 18.6725 16.4937 18.5037C16.1187 18.3162 14.9149 17.9225 13.4899 16.6475C12.3799 15.6537 11.6349 14.435 11.4149 14.06C11.0487 13.4275 11.8149 13.3375 12.5124 12.0175C12.6374 11.755 12.5737 11.5487 12.4812 11.3625C12.3874 11.175 11.6412 9.33747 11.3287 8.60497C11.0287 7.87497 10.7199 7.96747 10.4887 7.96747C9.76868 7.90497 9.24243 7.91497 8.77868 8.39747C6.76118 10.615 7.26993 12.9025 8.99618 15.335C12.3887 19.775 14.1962 20.5925 17.5012 21.7275C18.3937 22.0112 19.2074 21.9712 19.8512 21.8787C20.5687 21.765 22.0599 20.9775 22.3712 20.0962C22.6899 19.215 22.6899 18.4837 22.5962 18.315C22.5037 18.1462 22.2587 18.0525 21.8837 17.8837Z" fill="#333333"/>
</g>
<defs>
<clipPath id="clip0_601_1392">
<rect width="30" height="30" fill="white"/>
</clipPath>
</defs>
</svg>
