<svg width="34" height="34" viewBox="0 0 34 34" fill="none" xmlns="http://www.w3.org/2000/svg">
<path d="M12.7495 8.49993C12.7488 8.83094 12.8641 9.15172 13.0753 9.40659L19.422 16.9999L13.302 24.6074C13.1843 24.7523 13.0964 24.9191 13.0434 25.0981C12.9904 25.277 12.9732 25.4647 12.993 25.6504C13.0127 25.836 13.069 26.0159 13.1585 26.1797C13.248 26.3435 13.369 26.488 13.5145 26.6049C13.6594 26.7226 13.8261 26.8105 14.0051 26.8635C14.1841 26.9165 14.3718 26.9337 14.5574 26.9139C14.743 26.8942 14.9229 26.8379 15.0867 26.7484C15.2506 26.6589 15.3951 26.538 15.512 26.3924L22.3545 17.8924C22.5628 17.6389 22.6768 17.321 22.6768 16.9928C22.6768 16.6647 22.5628 16.3468 22.3545 16.0933L15.2712 7.59326C15.1522 7.44981 15.0062 7.33124 14.8413 7.24432C14.6765 7.1574 14.4962 7.10386 14.3106 7.08675C14.1251 7.06964 13.938 7.08931 13.76 7.14462C13.5821 7.19994 13.4168 7.28981 13.2737 7.4091C13.1111 7.54092 12.9799 7.70711 12.8892 7.89572C12.7986 8.08433 12.7509 8.29068 12.7495 8.49993Z" fill="currentColor"/>
</svg>
