<svg width="14" height="10" viewBox="0 0 14 10" fill="none" xmlns="http://www.w3.org/2000/svg">
<path fill-rule="evenodd" clip-rule="evenodd" d="M8.33631e-05 5.00034C8.33515e-05 5.13295 0.0527614 5.26013 0.14653 5.3539C0.240298 5.44766 0.367475 5.50034 0.500083 5.50034L12.2931 5.50035L9.14608 8.64634C9.0996 8.69283 9.06272 8.74802 9.03756 8.80876C9.0124 8.8695 8.99945 8.9346 8.99945 9.00034C8.99945 9.06609 9.0124 9.13119 9.03756 9.19193C9.06272 9.25267 9.0996 9.30786 9.14608 9.35434C9.19257 9.40083 9.24776 9.43771 9.3085 9.46287C9.36924 9.48803 9.43434 9.50098 9.50008 9.50098C9.56583 9.50098 9.63093 9.48803 9.69167 9.46287C9.75241 9.43771 9.8076 9.40083 9.85408 9.35434L13.8541 5.35435C13.9006 5.3079 13.9376 5.25272 13.9628 5.19198C13.988 5.13123 14.001 5.06611 14.001 5.00035C14.001 4.93458 13.988 4.86946 13.9628 4.80871C13.9376 4.74797 13.9006 4.69279 13.8541 4.64635L9.85408 0.646345C9.8076 0.599857 9.75241 0.56298 9.69167 0.537821C9.63093 0.512663 9.56583 0.499714 9.50008 0.499714C9.43434 0.499713 9.36924 0.512662 9.3085 0.537821C9.24776 0.56298 9.19257 0.599857 9.14608 0.646345C9.0996 0.692833 9.06272 0.748022 9.03756 0.808761C9.0124 0.869501 8.99945 0.934601 8.99945 1.00034C8.99945 1.06609 9.0124 1.13119 9.03756 1.19193C9.06272 1.25267 9.0996 1.30786 9.14608 1.35434L12.2931 4.50035L0.500083 4.50034C0.367475 4.50034 0.240298 4.55302 0.14653 4.64679C0.0527615 4.74056 8.33747e-05 4.86774 8.33631e-05 5.00034Z" fill="currentColor"/>
</svg>
