<svg width="10" height="5" viewBox="0 0 10 5" fill="none" xmlns="http://www.w3.org/2000/svg">
<path d="M0.534954 0.672676L0.534858 0.672592C0.50202 0.643802 0.5 0.621746 0.5 0.614169C0.5 0.606602 0.502007 0.584619 0.534767 0.555913L0.534948 0.555754C0.619707 0.481409 0.781048 0.481425 0.865767 0.555741L0.865776 0.555749L4.67036 3.89298L5.00007 4.1822L5.32979 3.89298L9.13415 0.555917C9.13416 0.55591 9.13417 0.555903 9.13418 0.555896C9.1342 0.555879 9.13422 0.555862 9.13424 0.555846C9.21918 0.481457 9.38047 0.48157 9.46515 0.555851L9.46523 0.555917C9.49795 0.584612 9.5 0.606624 9.5 0.614273C9.5 0.621931 9.49794 0.644005 9.46515 0.672768L9.46515 0.672771L5.16547 4.44423C5.12943 4.47583 5.07129 4.5 5.00009 4.5C4.92889 4.5 4.87062 4.47576 4.83463 4.44419L0.534954 0.672676Z" fill="currentColor" stroke="currentColor"/>
</svg>
