<svg width="22" height="22" viewBox="0 0 22 22" fill="none" xmlns="http://www.w3.org/2000/svg">
<path d="M18.7405 21.6983H18.4705C15.3125 21.3512 12.2789 20.2726 9.61054 18.5483C7.13969 16.9709 5.044 14.8718 3.47054 12.3983C1.74279 9.72798 0.664017 6.6903 0.320541 3.52834C0.282282 3.11233 0.333425 2.69296 0.470541 2.29834C0.609174 1.92735 0.819892 1.58748 1.09054 1.29834C1.37143 0.995337 1.71187 0.75362 2.09054 0.58834C2.4569 0.413511 2.85494 0.314853 3.26054 0.29834L6.18054 0.29834C6.89179 0.309516 7.57861 0.55959 8.13054 1.00834C8.66991 1.47661 9.0245 2.12197 9.13054 2.82834C9.24803 3.69205 9.45928 4.54039 9.76054 5.35834C9.95933 5.88515 10.001 6.45831 9.88054 7.00834C9.76627 7.55986 9.49546 8.06676 9.10054 8.46834L8.41054 9.14834C9.54975 10.9278 11.0611 12.4391 12.8405 13.5783L13.5205 12.8983C13.9232 12.5029 14.4293 12.2291 14.9805 12.1083C15.5306 11.9879 16.1037 12.0296 16.6305 12.2283C17.4455 12.5283 18.2903 12.7395 19.1505 12.8583C19.8695 12.9568 20.5267 13.3176 20.9956 13.8714C21.4645 14.4253 21.7121 15.133 21.6905 15.8583V18.7683C21.6925 19.1782 21.6073 19.5839 21.4405 19.9583C21.2801 20.3397 21.0377 20.6811 20.7305 20.9583C20.4405 21.2254 20.1007 21.4327 19.7305 21.5683C19.4111 21.6713 19.0757 21.7153 18.7405 21.6983ZM6.20054 2.29834H3.26054C3.12986 2.29992 3.00076 2.3271 2.88054 2.37834C2.76129 2.43083 2.65535 2.50943 2.57054 2.60834C2.47955 2.70549 2.41125 2.82161 2.37054 2.94834C2.33322 3.06111 2.31629 3.17963 2.32054 3.29834C2.62705 6.15075 3.59989 8.89115 5.16054 11.2983C6.57898 13.5252 8.4662 15.4159 10.6905 16.8383C13.0997 18.395 15.8391 19.3675 18.6905 19.6783C18.8128 19.7014 18.9383 19.7014 19.0605 19.6783C19.1843 19.6375 19.2971 19.5691 19.3905 19.4783C19.4899 19.39 19.5685 19.2807 19.6205 19.1583C19.6718 19.0381 19.699 18.909 19.7005 18.7783V15.7983C19.7038 15.5659 19.626 15.3396 19.4805 15.1583C19.3266 14.9869 19.1182 14.8738 18.8905 14.8383C17.8649 14.7104 16.858 14.462 15.8905 14.0983C15.7167 14.0539 15.5344 14.0539 15.3605 14.0983C15.1842 14.1377 15.0217 14.2241 14.8905 14.3483L13.6605 15.5883C13.5048 15.7448 13.3017 15.8454 13.0828 15.8744C12.8639 15.9033 12.6416 15.859 12.4505 15.7483C9.87979 14.253 7.7616 12.0899 6.32054 9.48834C6.20832 9.30458 6.1584 9.0895 6.17822 8.8751C6.19804 8.6607 6.28653 8.45842 6.43054 8.29834L7.67054 7.05834C7.79481 6.92714 7.8812 6.76472 7.92054 6.58834C7.96499 6.41447 7.96499 6.23221 7.92054 6.05834C7.55754 5.09068 7.30918 4.08381 7.18054 3.05834C7.14725 2.83557 7.03339 2.63276 6.86054 2.48834C6.67284 2.34312 6.43672 2.27514 6.20054 2.29834Z" fill="currentColor"/>
</svg>
