<svg width="20" height="29" viewBox="0 0 20 29" fill="none" xmlns="http://www.w3.org/2000/svg">
<path d="M10 0C4.486 0 0 4.486 0 10C0 11.863 0.516056 13.6811 1.49272 15.2584L9.43078 28.0505C9.58283 28.2956 9.85072 28.4444 10.1388 28.4444C10.1411 28.4444 10.1432 28.4444 10.1454 28.4444C10.4361 28.4422 10.7045 28.2887 10.8538 28.0393L18.5895 15.1233C19.5123 13.5793 20 11.8077 20 10C20 4.486 15.514 0 10 0ZM17.1592 14.2677L10.1262 26.0103L2.90928 14.3803C2.09633 13.0674 1.65556 11.5528 1.65556 10C1.65556 5.405 5.405 1.65556 10 1.65556C14.595 1.65556 18.3389 5.405 18.3389 10C18.3389 11.5067 17.9272 12.9827 17.1592 14.2677Z" fill="#4A9B7A"/>
<path d="M10 5C7.243 5 5 7.243 5 10C5 12.7394 7.2065 15 10 15C12.8279 15 15 12.7093 15 10C15 7.243 12.757 5 10 5ZM10 13.3444C8.15239 13.3444 6.65556 11.8426 6.65556 10C6.65556 8.162 8.162 6.65556 10 6.65556C11.838 6.65556 13.3389 8.162 13.3389 10C13.3389 11.8157 11.8769 13.3444 10 13.3444Z" fill="#4A9B7A"/>
</svg>
