<svg width="10" height="6" viewBox="0 0 10 6" fill="none" xmlns="http://www.w3.org/2000/svg">
<path d="M0.557296 0.830284L0.557204 0.830193C0.480884 0.754556 0.481009 0.633939 0.557117 0.558546L0.557291 0.558375C0.635796 0.480534 0.764959 0.480553 0.843425 0.558362L0.843433 0.55837L4.64802 4.3309L5.00007 4.67999L5.35213 4.3309L9.1565 0.558557C9.15652 0.558535 9.15654 0.558513 9.15657 0.558492C9.23524 0.480588 9.36437 0.480712 9.44281 0.558485L9.44288 0.558557C9.519 0.634001 9.5191 0.75474 9.44281 0.830389L9.44281 0.830392L5.14312 5.09379C5.14309 5.09382 5.14306 5.09385 5.14303 5.09388C5.10409 5.13242 5.05339 5.15217 5.00009 5.15217C4.94677 5.15217 4.89592 5.13233 4.857 5.09377C4.85699 5.09376 4.85698 5.09375 4.85697 5.09374L0.557296 0.830284Z" fill="currentColor" stroke="currentColor"/>
</svg>
