<svg width="24" height="24" viewBox="0 0 24 24" fill="none" xmlns="http://www.w3.org/2000/svg">
<path d="M15.6168 9.76801C15.6968 9.69337 15.7614 9.6037 15.8068 9.50411C15.8522 9.40453 15.8775 9.29697 15.8814 9.18759C15.8852 9.07821 15.8675 8.96915 15.8291 8.86663C15.7908 8.76411 15.7327 8.67014 15.658 8.59009C15.5834 8.51004 15.4937 8.44547 15.3942 8.40008C15.2946 8.35468 15.187 8.32934 15.0776 8.32551C14.9683 8.32168 14.8592 8.33943 14.7567 8.37775C14.6541 8.41607 14.5602 8.47421 14.4801 8.54884L12.0418 10.8222L9.76846 8.38301C9.61635 8.22721 9.40931 8.13714 9.19163 8.13206C8.97395 8.12699 8.76293 8.20731 8.60372 8.35585C8.44451 8.50438 8.34976 8.70933 8.33975 8.92684C8.32973 9.14435 8.40525 9.35714 8.55013 9.51967L10.8235 11.958L8.3843 14.2313C8.30142 14.3052 8.23414 14.3949 8.18641 14.4952C8.13868 14.5954 8.11146 14.7042 8.10635 14.8151C8.10124 14.926 8.11835 15.0368 8.15667 15.141C8.19499 15.2452 8.25374 15.3407 8.32948 15.4219C8.40522 15.5031 8.49642 15.5683 8.59772 15.6137C8.69902 15.6592 8.80838 15.6839 8.91937 15.6865C9.03037 15.6891 9.14076 15.6695 9.24407 15.6288C9.34738 15.5881 9.44152 15.5272 9.52096 15.4497L11.9593 13.1772L14.2326 15.6155C14.306 15.6999 14.3957 15.7687 14.4962 15.8177C14.5968 15.8667 14.7062 15.895 14.8179 15.9009C14.9296 15.9067 15.0413 15.89 15.1464 15.8518C15.2516 15.8135 15.3479 15.7545 15.4297 15.6782C15.5115 15.6019 15.5772 15.51 15.6227 15.4078C15.6682 15.3056 15.6927 15.1953 15.6947 15.0835C15.6966 14.9716 15.6761 14.8605 15.6342 14.7568C15.5924 14.653 15.53 14.5588 15.451 14.4797L13.1785 12.0413L15.6168 9.76801Z" fill="black"/>
<path fill-rule="evenodd" clip-rule="evenodd" d="M2.83398 11.9997C2.83398 6.93717 6.93815 2.83301 12.0007 2.83301C17.0631 2.83301 21.1673 6.93717 21.1673 11.9997C21.1673 17.0622 17.0631 21.1663 12.0007 21.1663C6.93815 21.1663 2.83398 17.0622 2.83398 11.9997ZM12.0007 19.4997C11.0157 19.4997 10.0405 19.3057 9.13052 18.9288C8.22058 18.5519 7.39379 17.9994 6.69735 17.303C6.00091 16.6065 5.44846 15.7797 5.07155 14.8698C4.69464 13.9599 4.50065 12.9846 4.50065 11.9997C4.50065 11.0148 4.69464 10.0395 5.07155 9.12955C5.44846 8.21961 6.00091 7.39281 6.69735 6.69637C7.39379 5.99993 8.22058 5.44749 9.13052 5.07058C10.0405 4.69367 11.0157 4.49967 12.0007 4.49967C13.9898 4.49967 15.8974 5.28985 17.304 6.69637C18.7105 8.1029 19.5007 10.0106 19.5006 11.9997C19.5007 13.9888 18.7105 15.8965 17.304 17.303C15.8974 18.7095 13.9898 19.4997 12.0007 19.4997Z" fill="black"/>
</svg>
