<svg width="15" height="12" viewBox="0 0 15 12" fill="none" xmlns="http://www.w3.org/2000/svg">
<path d="M1.4397 3.69889C1.62945 3.83522 2.20142 4.24013 3.15564 4.9134C4.10989 5.58668 4.84091 6.10508 5.34874 6.46865C5.40453 6.5085 5.52306 6.59513 5.7044 6.72865C5.88576 6.86227 6.03645 6.97024 6.15637 7.05261C6.27637 7.13494 6.42143 7.2273 6.59171 7.32954C6.76193 7.43169 6.92239 7.50853 7.07306 7.5594C7.22376 7.61068 7.36325 7.63609 7.49158 7.63609H7.49999H7.50844C7.63676 7.63609 7.77632 7.61065 7.92701 7.5594C8.07762 7.50853 8.23823 7.4316 8.4083 7.32954C8.57847 7.22718 8.72353 7.13491 8.84353 7.05261C8.96353 6.97024 9.11411 6.86227 9.29553 6.72865C9.47684 6.59501 9.59552 6.5085 9.65131 6.46865C10.1646 6.10508 11.4705 5.18174 13.5687 3.69871C13.976 3.40906 14.3163 3.05956 14.5897 2.65044C14.8633 2.2415 15 1.8125 15 1.36368C15 0.988627 14.8674 0.667573 14.6023 0.40055C14.3372 0.133467 14.0233 0 13.6607 0H1.33923C0.90957 0 0.578918 0.147706 0.347333 0.443118C0.115778 0.73859 0 1.10791 0 1.55106C0 1.90901 0.15351 2.29691 0.460385 2.7145C0.76723 3.13213 1.09378 3.46029 1.4397 3.69889Z" fill="currentColor"/>
<path d="M14.1628 4.6106C12.3327 5.87186 10.943 6.85207 9.99444 7.55102C9.67636 7.78956 9.41833 7.97577 9.22017 8.10921C9.02201 8.24274 8.75847 8.3791 8.42917 8.51824C8.09998 8.65759 7.7932 8.72705 7.50855 8.72705H7.50001H7.4916C7.20701 8.72705 6.90005 8.65759 6.57086 8.51824C6.24168 8.3791 5.97796 8.24274 5.77985 8.10921C5.58181 7.97577 5.32369 7.78956 5.00565 7.55102C4.25226 6.98855 2.86556 6.00828 0.845509 4.6106C0.527347 4.39483 0.24554 4.14751 0 3.86914V10.6361C0 11.0113 0.131082 11.3322 0.393392 11.5992C0.655644 11.8664 0.970991 11.9999 1.33932 11.9999H13.6608C14.029 11.9999 14.3443 11.8664 14.6066 11.5992C14.869 11.3321 15 11.0113 15 10.6361V3.86914C14.76 4.14175 14.4811 4.38907 14.1628 4.6106Z" fill="currentColor"/>
</svg>
