<svg width="30" height="30" viewBox="0 0 30 30" fill="none" xmlns="http://www.w3.org/2000/svg">
<g clip-path="url(#clip0_91_2)">
<path d="M1.87562 2.04235C-0.481885 4.4911 0.000615284 7.09235 0.000615284 14.9948C0.000615284 21.5573 -1.14438 28.1361 4.84812 29.6848C6.71937 30.1661 23.2994 30.1661 25.1681 29.6823C27.6631 29.0386 29.6931 27.0148 29.9706 23.4861C30.0094 22.9936 30.0094 7.00485 29.9694 6.50235C29.6744 2.7436 27.3606 0.577346 24.3119 0.138596C23.6131 0.0373456 23.4731 0.00734559 19.8881 0.00109559C7.17186 0.00734559 4.38437 -0.558905 1.87562 2.04235Z" fill="#333333"/>
<path d="M14.9982 3.9228C10.4595 3.9228 6.14949 3.51905 4.50324 7.74405C3.82324 9.48905 3.92199 11.7553 3.92199 15.0003C3.92199 17.8478 3.83074 20.524 4.50324 22.2553C6.14574 26.4828 10.4907 26.0778 14.9957 26.0778C19.342 26.0778 23.8232 26.5303 25.4895 22.2553C26.1707 20.4928 26.0707 18.2603 26.0707 15.0003C26.0707 10.6728 26.3095 7.87905 24.2107 5.78155C22.0857 3.65655 19.212 3.9228 14.9932 3.9228H14.9982ZM14.0057 5.91905C23.4732 5.90405 24.6782 4.85155 24.0132 19.4728C23.777 24.6441 19.8395 24.0765 14.9995 24.0765C6.17449 24.0765 5.92074 23.8241 5.92074 14.9953C5.92074 6.06405 6.62074 5.92405 14.0057 5.91655V5.91905ZM20.9107 7.7578C20.177 7.7578 19.582 8.3528 19.582 9.08655C19.582 9.8203 20.177 10.4153 20.9107 10.4153C21.6445 10.4153 22.2395 9.8203 22.2395 9.08655C22.2395 8.3528 21.6445 7.7578 20.9107 7.7578ZM14.9982 9.31155C11.857 9.31155 9.31074 11.8591 9.31074 15.0003C9.31074 18.1416 11.857 20.6878 14.9982 20.6878C18.1395 20.6878 20.6845 18.1416 20.6845 15.0003C20.6845 11.8591 18.1395 9.31155 14.9982 9.31155ZM14.9982 11.3078C19.8795 11.3078 19.8857 18.6928 14.9982 18.6928C10.1182 18.6928 10.1107 11.3078 14.9982 11.3078Z" fill="white"/>
</g>
<defs>
<clipPath id="clip0_91_2">
<rect width="30" height="30" fill="white"/>
</clipPath>
</defs>
</svg>
