<svg width="30" height="30" viewBox="0 0 30 30" fill="none" xmlns="http://www.w3.org/2000/svg">
<path d="M1.87464 2.04039C-0.482861 4.48914 -0.000361279 7.09039 -0.000361279 14.9929C-0.000361279 21.5554 -1.14536 28.1341 4.84714 29.6829C6.71839 30.1641 23.2984 30.1641 25.1671 29.6804C27.6621 29.0366 29.6921 27.0129 29.9696 23.4841C30.0084 22.9916 30.0084 7.00289 29.9684 6.50039C29.6734 2.74164 27.3596 0.575392 24.3109 0.136642C23.6121 0.0353925 23.4721 0.00539247 19.8871 -0.000857532C7.17089 0.00539247 4.38339 -0.560858 1.87464 2.04039Z" fill="url(#paint0_linear_91_50)"/>
<path d="M14.9973 3.9228C10.4585 3.9228 6.14852 3.51905 4.50227 7.74405C3.82227 9.48905 3.92102 11.7553 3.92102 15.0003C3.92102 17.8478 3.82977 20.524 4.50227 22.2553C6.14477 26.4828 10.4898 26.0778 14.9948 26.0778C19.341 26.0778 23.8223 26.5303 25.4885 22.2553C26.1698 20.4928 26.0698 18.2603 26.0698 15.0003C26.0698 10.6728 26.3085 7.87905 24.2098 5.78155C22.0848 3.65655 19.211 3.9228 14.9923 3.9228H14.9973ZM14.0048 5.91905C23.4723 5.90405 24.6773 4.85155 24.0123 19.4728C23.776 24.6441 19.8385 24.0765 14.9985 24.0765C6.17352 24.0765 5.91977 23.8241 5.91977 14.9953C5.91977 6.06405 6.61977 5.92405 14.0048 5.91655V5.91905ZM20.9098 7.7578C20.176 7.7578 19.581 8.3528 19.581 9.08655C19.581 9.8203 20.176 10.4153 20.9098 10.4153C21.6435 10.4153 22.2385 9.8203 22.2385 9.08655C22.2385 8.3528 21.6435 7.7578 20.9098 7.7578ZM14.9973 9.31155C11.856 9.31155 9.30977 11.8591 9.30977 15.0003C9.30977 18.1416 11.856 20.6878 14.9973 20.6878C18.1385 20.6878 20.6835 18.1416 20.6835 15.0003C20.6835 11.8591 18.1385 9.31155 14.9973 9.31155ZM14.9973 11.3078C19.8785 11.3078 19.8848 18.6928 14.9973 18.6928C10.1173 18.6928 10.1098 11.3078 14.9973 11.3078Z" fill="white"/>
<defs>
<linearGradient id="paint0_linear_91_50" x1="1.93216" y1="28.083" x2="29.814" y2="3.95161" gradientUnits="userSpaceOnUse">
<stop stop-color="#FFDD55"/>
<stop offset="0.5" stop-color="#FF543E"/>
<stop offset="1" stop-color="#C837AB"/>
</linearGradient>
</defs>
</svg>
