<svg width="16" height="16" viewBox="0 0 16 16" fill="none" xmlns="http://www.w3.org/2000/svg">
<path d="M10.1648 10.74L11.2848 9.62002C11.4357 9.47104 11.6265 9.36906 11.8342 9.32646C12.0419 9.28385 12.2575 9.30246 12.4548 9.38002L13.8198 9.92502C14.0192 10.006 14.1902 10.1441 14.3112 10.3221C14.4322 10.5 14.4979 10.7098 14.4998 10.925V13.425C14.4987 13.5714 14.4679 13.7161 14.4094 13.8502C14.3508 13.9844 14.2657 14.1054 14.1592 14.2058C14.0527 14.3062 13.927 14.3841 13.7896 14.4346C13.6522 14.4852 13.506 14.5074 13.3598 14.5C3.79482 13.905 1.86482 5.80502 1.49982 2.70502C1.48288 2.55279 1.49836 2.39869 1.54525 2.25288C1.59213 2.10706 1.66936 1.97282 1.77186 1.85899C1.87435 1.74516 1.99978 1.65432 2.1399 1.59245C2.28002 1.53058 2.43165 1.49908 2.58482 1.50002H4.99982C5.21533 1.50066 5.42571 1.56575 5.60392 1.68694C5.78213 1.80812 5.92001 1.97984 5.99982 2.18002L6.54482 3.54502C6.62495 3.74155 6.64539 3.95734 6.6036 4.16543C6.5618 4.37351 6.45962 4.56467 6.30982 4.71502L5.18982 5.83502C5.18982 5.83502 5.83482 10.2 10.1648 10.74Z" fill="#333333"/>
</svg>
