<svg width="30" height="30" viewBox="0 0 30 30" fill="none" xmlns="http://www.w3.org/2000/svg">
<g clip-path="url(#clip0_91_55)">
<path d="M26.94 9.68625C26.94 9.415 26.93 9.15125 26.9175 8.89125C28.1375 8.025 29.1637 6.94375 30 5.69875V5.6975C28.8838 6.18625 27.6963 6.51125 26.4563 6.66875C27.7313 5.9075 28.705 4.71125 29.1625 3.27C27.9737 3.97875 26.6612 4.47875 25.2625 4.75875C24.1337 3.55625 22.525 2.8125 20.77 2.8125C17.365 2.8125 14.6238 5.57625 14.6238 8.96375C14.6238 9.45125 14.665 9.92 14.7662 10.3663C9.65375 10.1163 5.12875 7.66625 2.08875 3.9325C1.55875 4.85375 1.24625 5.9075 1.24625 7.04125C1.24625 9.17125 2.3425 11.0588 3.97875 12.1525C2.99 12.1337 2.02125 11.8463 1.2 11.395V11.4625C1.2 14.4513 3.33125 16.9338 6.1275 17.5063C5.1875 17.7638 4.03 17.7537 3.35125 17.6038C4.1475 20.0387 6.41 21.83 9.0975 21.8888C7.005 23.525 4.3475 24.5112 1.47125 24.5112C0.9675 24.5112 0.48375 24.4888 0 24.4275C2.725 26.1838 5.9525 27.1875 9.435 27.1875C20.7525 27.1875 26.94 17.8125 26.94 9.68625Z" fill="#55ACEE"/>
</g>
<defs>
<clipPath id="clip0_91_55">
<rect width="30" height="30" fill="white"/>
</clipPath>
</defs>
</svg>
