<svg width="30" height="30" viewBox="0 0 30 30" fill="none" xmlns="http://www.w3.org/2000/svg">
<g clip-path="url(#clip0_91_9)">
<path d="M28.9436 17.3671C29.8386 9.83339 28.5136 5.07714 26.1236 2.92589L26.1249 2.92464C22.2674 -0.749115 9.23986 -1.29286 4.62486 3.08964C2.55236 5.23339 1.82236 8.37964 1.74236 12.2746C1.66236 16.1709 1.56736 23.4696 8.36861 25.4496H8.37486L8.36861 28.4734C8.36861 28.4734 8.32236 29.6984 9.10486 29.9446C9.99986 30.2346 10.4049 29.6659 13.1886 26.3409C17.8436 26.7446 21.4186 25.8196 21.8249 25.6846C22.7649 25.3696 28.0836 24.6659 28.9436 17.3671ZM13.6474 24.2134C13.6474 24.2134 10.7011 27.8871 9.78486 28.8409C9.48486 29.1509 9.15611 29.1221 9.16111 28.5071C9.16111 28.1034 9.18361 23.4871 9.18361 23.4871C3.41736 21.8346 3.75736 15.6196 3.81986 12.3684C3.88236 9.11589 4.47736 6.45214 6.23236 4.65839C10.2811 0.862135 21.7024 1.71089 24.6124 4.44589C28.1699 7.59964 26.9036 16.5096 26.9111 16.8134C26.1799 22.9059 21.8699 23.2921 21.0774 23.5559C20.7386 23.6684 17.5949 24.4771 13.6474 24.2134Z" fill="#333333"/>
<path d="M15.277 5.37305C14.7957 5.37305 14.7957 6.12305 15.277 6.1293C19.0107 6.15805 22.0857 8.76055 22.1195 13.5343C22.1195 14.038 22.857 14.0318 22.8507 13.528H22.8495C22.8095 8.3843 19.452 5.4018 15.277 5.37305Z" fill="#333333"/>
<path d="M20.1882 12.7423C20.1769 13.2398 20.9132 13.2635 20.9195 12.7598C20.9807 9.92352 19.2319 7.58727 15.9457 7.34102C15.4644 7.30602 15.4144 8.06227 15.8944 8.09727C18.7444 8.31352 20.2457 10.2585 20.1882 12.7423Z" fill="#333333"/>
<path d="M19.4017 15.9681C18.7842 15.6106 18.1555 15.8331 17.8955 16.1844L17.3518 16.8881C17.0755 17.2456 16.5593 17.1981 16.5593 17.1981C12.7918 16.2019 11.7843 12.2594 11.7843 12.2594C11.7843 12.2594 11.738 11.7256 12.083 11.4394L12.763 10.8769C13.103 10.6069 13.318 9.95687 12.9718 9.31812C12.0468 7.64687 11.4255 7.07062 11.1093 6.62812C10.7768 6.21187 10.2768 6.11812 9.75676 6.39937H9.74551C8.66426 7.03187 7.48051 8.21562 7.85926 9.43437C8.50551 10.7194 9.69301 14.8156 13.478 17.9106C15.2568 19.3744 18.0718 20.8744 19.2667 21.2206L19.278 21.2381C20.4555 21.6306 21.6005 20.4006 22.2117 19.2869V19.2781C22.483 18.7394 22.393 18.2294 21.9967 17.8956C21.2942 17.2106 20.2342 16.4544 19.4017 15.9681Z" fill="#333333"/>
<path d="M16.4607 10.1301C17.662 10.2001 18.2445 10.8276 18.307 12.1164C18.3295 12.6201 19.0607 12.5851 19.0382 12.0814C18.9582 10.3988 18.0807 9.46135 16.5007 9.37385C16.0194 9.3451 15.9744 10.1013 16.4607 10.1301Z" fill="#333333"/>
</g>
<defs>
<clipPath id="clip0_91_9">
<rect width="30" height="30" fill="white"/>
</clipPath>
</defs>
</svg>
