<svg width="30" height="30" viewBox="0 0 30 30" fill="none" xmlns="http://www.w3.org/2000/svg">
<g clip-path="url(#clip0_601_1383)">
<path d="M28.9441 17.3662C29.8391 9.83241 28.5141 5.07616 26.1241 2.92491L26.1253 2.92366C22.2678 -0.750091 9.24034 -1.29384 4.62534 3.08866C2.55284 5.23241 1.82284 8.37866 1.74284 12.2737C1.66284 16.1699 1.56784 23.4687 8.36909 25.4487H8.37534L8.36909 28.4724C8.36909 28.4724 8.32284 29.6974 9.10534 29.9437C10.0003 30.2337 10.4053 29.6649 13.1891 26.3399C17.8441 26.7437 21.4191 25.8187 21.8253 25.6837C22.7653 25.3687 28.0841 24.6649 28.9441 17.3662ZM13.6478 24.2124C13.6478 24.2124 10.7016 27.8862 9.78534 28.8399C9.48534 29.1499 9.15659 29.1212 9.16159 28.5062C9.16159 28.1024 9.18409 23.4862 9.18409 23.4862C3.41784 21.8337 3.75784 15.6187 3.82034 12.3674C3.88284 9.11491 4.47784 6.45116 6.23284 4.65741C10.2816 0.861159 21.7028 1.70991 24.6128 4.44491C28.1703 7.59866 26.9041 16.5087 26.9116 16.8124C26.1803 22.9049 21.8703 23.2912 21.0778 23.5549C20.7391 23.6674 17.5953 24.4762 13.6478 24.2124Z" fill="white"/>
<path d="M15.2774 5.37109C14.7962 5.37109 14.7962 6.12109 15.2774 6.12734C19.0112 6.15609 22.0862 8.75859 22.1199 13.5323C22.1199 14.0361 22.8574 14.0298 22.8512 13.5261H22.8499C22.8099 8.38234 19.4524 5.39984 15.2774 5.37109Z" fill="white"/>
<path d="M20.1889 12.7413C20.1777 13.2388 20.9139 13.2625 20.9202 12.7588C20.9814 9.92254 19.2327 7.5863 15.9464 7.34005C15.4652 7.30505 15.4152 8.0613 15.8952 8.0963C18.7452 8.31255 20.2464 10.2575 20.1889 12.7413Z" fill="white"/>
<path d="M19.402 15.9671C18.7845 15.6096 18.1557 15.8321 17.8957 16.1834L17.352 16.8871C17.0757 17.2446 16.5595 17.1971 16.5595 17.1971C12.792 16.2009 11.7845 12.2584 11.7845 12.2584C11.7845 12.2584 11.7383 11.7246 12.0833 11.4384L12.7633 10.8759C13.1033 10.6059 13.3182 9.95589 12.972 9.31714C12.047 7.64589 11.4258 7.06964 11.1095 6.62714C10.777 6.21089 10.277 6.11714 9.757 6.39839H9.74575C8.6645 7.03089 7.48076 8.21464 7.85951 9.43339C8.50575 10.7184 9.69325 14.8146 13.4782 17.9096C15.257 19.3734 18.072 20.8734 19.267 21.2196L19.2782 21.2371C20.4557 21.6296 21.6007 20.3996 22.212 19.2859V19.2771C22.4832 18.7384 22.3932 18.2284 21.997 17.8946C21.2945 17.2096 20.2345 16.4534 19.402 15.9671Z" fill="white"/>
<path d="M16.4612 10.1301C17.6624 10.2001 18.2449 10.8276 18.3074 12.1164C18.3299 12.6201 19.0612 12.5851 19.0387 12.0814C18.9587 10.3988 18.0812 9.46135 16.5012 9.37385C16.0199 9.3451 15.9749 10.1013 16.4612 10.1301Z" fill="white"/>
</g>
<defs>
<clipPath id="clip0_601_1383">
<rect width="30" height="30" fill="white"/>
</clipPath>
</defs>
</svg>
