<svg width="30" height="30" viewBox="0 0 30 30" fill="none" xmlns="http://www.w3.org/2000/svg">
<g clip-path="url(#clip0_91_18)">
<path d="M25.65 4.31125C22.8 1.55625 19.05 0 15.0562 0C3.59375 0 -3.60375 12.4187 2.12 22.2975L0 30L7.91875 27.935C11.3687 29.7987 14.195 29.6338 15.0637 29.7437C28.355 29.7437 34.9712 13.6637 25.6312 4.36L25.65 4.31125Z" fill="#333333"/>
<path d="M15.0834 27.1888L15.0759 27.1875H15.0559C11.0784 27.1875 8.53711 25.3038 8.28711 25.195L3.59961 26.4138L4.85586 21.8575L4.55711 21.3888C3.31961 19.4188 2.66211 17.15 2.66211 14.8138C2.66211 3.82252 16.0934 -1.67373 23.8659 6.09502C31.6196 13.7825 26.1759 27.1888 15.0834 27.1888Z" fill="#333333"/>
<path d="M21.8839 17.8847L21.8727 17.9784C21.4964 17.7909 19.6639 16.8947 19.3227 16.7709C18.5564 16.4872 18.7727 16.7259 17.3014 18.4109C17.0827 18.6547 16.8652 18.6734 16.4939 18.5047C16.1189 18.3172 14.9152 17.9234 13.4902 16.6484C12.3802 15.6547 11.6352 14.4359 11.4152 14.0609C11.0489 13.4284 11.8152 13.3384 12.5127 12.0184C12.6377 11.7559 12.5739 11.5497 12.4814 11.3634C12.3877 11.1759 11.6414 9.33844 11.3289 8.60594C11.0289 7.87594 10.7202 7.96844 10.4889 7.96844C9.76892 7.90594 9.24267 7.91594 8.77892 8.39844C6.76142 10.6159 7.27017 12.9034 8.99642 15.3359C12.3889 19.7759 14.1964 20.5934 17.5014 21.7284C18.3939 22.0122 19.2077 21.9722 19.8514 21.8797C20.5689 21.7659 22.0602 20.9784 22.3714 20.0972C22.6902 19.2159 22.6902 18.4847 22.5964 18.3159C22.5039 18.1472 22.2589 18.0534 21.8839 17.8847Z" fill="white"/>
</g>
<defs>
<clipPath id="clip0_91_18">
<rect width="30" height="30" fill="white"/>
</clipPath>
</defs>
</svg>
