<svg width="30" height="30" viewBox="0 0 30 30" fill="none" xmlns="http://www.w3.org/2000/svg">
<g clip-path="url(#clip0_91_70)">
<path d="M0.652288 22.3429C1.26479 24.5154 3.13854 24.9129 3.26354 24.9891C6.34729 25.8291 23.6323 25.8316 26.7623 24.9891C28.906 24.3691 29.2998 22.4679 29.3735 22.3429C30.1898 18.0004 30.2435 12.3391 29.336 7.41162L29.3735 7.65662C28.761 5.48412 26.8873 5.08662 26.7623 5.01037C23.7198 4.18412 6.38979 4.15287 3.26354 5.01037C1.11979 5.63162 0.726038 7.53162 0.652288 7.65662C-0.221462 12.2204 -0.265212 17.4566 0.652288 22.3429ZM12.0098 19.5641V10.4479L19.8423 15.0129L12.0098 19.5641Z" fill="#E53935"/>
</g>
<defs>
<clipPath id="clip0_91_70">
<rect width="30" height="30" fill="white"/>
</clipPath>
</defs>
</svg>
