<svg width="30" height="30" viewBox="0 0 30 30" fill="none" xmlns="http://www.w3.org/2000/svg">
<g clip-path="url(#clip0_601_1396)">
<path d="M0.652776 22.3429C1.26528 24.5154 3.13903 24.9129 3.26403 24.9891C6.34778 25.8291 23.6328 25.8316 26.7628 24.9891C28.9065 24.3691 29.3003 22.4679 29.374 22.3429C30.1903 18.0004 30.244 12.3391 29.3365 7.41162L29.374 7.65662C28.7615 5.48412 26.8878 5.08662 26.7628 5.01037C23.7203 4.18412 6.39028 4.15287 3.26403 5.01037C1.12028 5.63162 0.726526 7.53162 0.652776 7.65662C-0.220974 12.2204 -0.264724 17.4566 0.652776 22.3429ZM12.0103 19.5641V10.4479L19.8428 15.0129L12.0103 19.5641Z" fill="white"/>
</g>
<defs>
<clipPath id="clip0_601_1396">
<rect width="30" height="30" fill="white"/>
</clipPath>
</defs>
</svg>
