<svg width="30" height="30" viewBox="0 0 30 30" fill="none" xmlns="http://www.w3.org/2000/svg">
<g clip-path="url(#clip0_91_22)">
<path d="M0.653264 22.3429C1.26576 24.5154 3.13951 24.9129 3.26451 24.9891C6.34826 25.8291 23.6333 25.8316 26.7633 24.9891C28.907 24.3691 29.3008 22.4679 29.3745 22.3429C30.1908 18.0004 30.2445 12.3391 29.337 7.41162L29.3745 7.65662C28.762 5.48412 26.8883 5.08662 26.7633 5.01037C23.7208 4.18412 6.39076 4.15287 3.26451 5.01037C1.12076 5.63162 0.727014 7.53162 0.653264 7.65662C-0.220486 12.2204 -0.264236 17.4566 0.653264 22.3429ZM12.0108 19.5641V10.4479L19.8433 15.0129L12.0108 19.5641Z" fill="#333333"/>
</g>
<defs>
<clipPath id="clip0_91_22">
<rect width="30" height="30" fill="white"/>
</clipPath>
</defs>
</svg>
